<svg xmlns="http://www.w3.org/2000/svg" width="37.63" height="32.93" viewBox="0 0 37.63 32.93"><path d="M14.64,8.45l-.76,2.29H8.39a4.71,4.71,0,0,0-4.71,4.7V34.26A4.7,4.7,0,0,0,8.39,39H36.61a4.7,4.7,0,0,0,4.71-4.7V15.44a4.71,4.71,0,0,0-4.71-4.7H31.12l-.76-2.29A3.53,3.53,0,0,0,27,6H18A3.53,3.53,0,0,0,14.64,8.45ZM31.91,22.5a1.18,1.18,0,0,1-1.18,1.18H25.09a.84.84,0,0,1-.83-.83.8.8,0,0,1,.25-.59l1.74-1.74a5.31,5.31,0,0,0-7.52,0L17.28,22a1.76,1.76,0,0,1-2.49,0,1.78,1.78,0,0,1,0-2.5l1.45-1.44a8.84,8.84,0,0,1,12.51,0l1.74-1.75a.83.83,0,0,1,1.42.59ZM13.09,27.2A1.18,1.18,0,0,1,14.27,26h5.64a.83.83,0,0,1,.58,1.42l-1.74,1.74a5.34,5.34,0,0,0,7.52,0l1.45-1.45a1.76,1.76,0,0,1,2.49,2.49l-1.45,1.45a8.81,8.81,0,0,1-6.26,2.6,8.91,8.91,0,0,1-6.25-2.57l-1.74,1.74a.85.85,0,0,1-.59.24.83.83,0,0,1-.83-.83Z" transform="translate(-3.68 -6.04)" fill="#231f20"/></svg>