<svg xmlns="http://www.w3.org/2000/svg" width="35.28" height="35.28" viewBox="0 0 35.28 35.28"><path d="M35.73,4.86H9.27A4.42,4.42,0,0,0,4.86,9.27V29.12a4.42,4.42,0,0,0,4.41,4.41h6.61V39a1.12,1.12,0,0,0,.61,1,1.13,1.13,0,0,0,1.16-.11l8.52-6.39h9.56a4.42,4.42,0,0,0,4.41-4.41V9.27A4.42,4.42,0,0,0,35.73,4.86ZM30.08,23.13a1.31,1.31,0,0,1,.38.91,1.3,1.3,0,0,1-.38.91l-1.82,1.83a1.3,1.3,0,0,1-.91.37,1.29,1.29,0,0,1-.91-.37L22.5,22.84l-3.94,3.94a1.29,1.29,0,0,1-.91.37,1.3,1.3,0,0,1-.91-.37L14.92,25a1.3,1.3,0,0,1-.38-.91,1.31,1.31,0,0,1,.38-.91l3.94-3.94-3.94-3.94a1.3,1.3,0,0,1-.38-.91,1.31,1.31,0,0,1,.38-.91l1.82-1.82a1.31,1.31,0,0,1,.91-.38,1.3,1.3,0,0,1,.91.38l3.94,3.94,3.94-3.94a1.3,1.3,0,0,1,.91-.38,1.31,1.31,0,0,1,.91.38l1.82,1.82a1.31,1.31,0,0,1,.38.91,1.3,1.3,0,0,1-.38.91l-3.94,3.94Z" transform="translate(-4.86 -4.86)"/></svg>