<svg xmlns="http://www.w3.org/2000/svg" width="28.13" height="33.44" viewBox="0 0 28.13 33.44"><path d="M30.61,26.43a9,9,0,0,0,1.13-4.35V19.51a1.29,1.29,0,0,1,2.57,0v2.57a11.46,11.46,0,0,1-1.83,6.21Zm.12,4h0l-1.82-1.81h0l-1.82-1.82h0L16.3,16h0l-5.53-5.53a1.37,1.37,0,0,0-1.93,0,1.35,1.35,0,0,0,0,1.93l7.46,7.47v2.21a6.46,6.46,0,0,0,6.43,6.44,6.38,6.38,0,0,0,1.92-.3l2,2a8.9,8.9,0,0,1-3.89.9,9,9,0,0,1-9-9V19.51a1.29,1.29,0,0,0-2.57,0v2.57a11.58,11.58,0,0,0,10.29,11.5v2.65H16.3a1.29,1.29,0,0,0,0,2.57H29.16a1.29,1.29,0,1,0,0-2.57H24V33.58a11.51,11.51,0,0,0,4.5-1.49l5.71,5.7a1.36,1.36,0,0,0,1,.4,1.32,1.32,0,0,0,1-.4,1.35,1.35,0,0,0,0-1.93ZM28.68,24.5a6.29,6.29,0,0,0,.48-2.42V11.8a6.43,6.43,0,0,0-12.86,0v.32Z" transform="translate(-8.44 -5.37)"/></svg>