<svg xmlns="http://www.w3.org/2000/svg" width="44.47" height="35.58" viewBox="0 0 44.47 35.58"> <path d="M 2.5518448,0.00262285 C 2.1959322,-0.02181074 1.8349972,0.12479124 1.5961388,0.42885374 L 0.23423734,2.1803369 c -0.37522485,0.4865 -0.29192278,1.1815287 0.19447981,1.5568287 L 2.9649617,5.6970132 8.3840674,9.8873787 c -1.71e-4,-0.0017 -5.087e-4,-0.00345 -6.789e-4,-0.00516 l 4.9628325,3.8370283 c -9.92e-4,9.8e-4 -0.0021,0.0017 -0.0031,0.0027 l 3.185913,2.463587 c 0.0031,7.16e-4 0.006,9.1e-4 0.0091,0.0016 l 6.225118,4.81288 c 0.0033,0.0044 0.0061,0.009 0.0094,0.01344 l 6.13161,4.741208 12.403279,9.591009 c 0.486402,0.3753 1.181265,0.291981 1.563438,-0.194518 l 1.361837,-1.758407 c 0.382173,-0.47955 0.291922,-1.181529 -0.19448,-1.556829 l -3.821739,-2.953753 c 1.070086,-0.0973 2.028942,-0.952125 2.028942,-2.161425 V 8.8592663 c 0,-1.7722496 -2.022076,-2.8078561 -3.502129,-1.793156 L 31.127754,12.320424 V 21.85578 L 28.904197,20.139182 V 7.7681695 c 0,-1.8347999 -1.48706,-3.3221575 -3.321492,-3.3221575 H 8.6073187 L 3.1595772,0.23433499 C 2.9771763,0.09359749 2.7653924,0.01728301 2.5518448,0.00262285 Z M 20.261043,5.7473736 c 0.197035,-0.00467 0.393731,0.019242 0.587511,0.07398 1.550237,0.4379045 2.325913,2.6832412 1.732675,5.0162214 -0.335403,1.319009 -1.036773,2.382597 -1.863097,2.979545 l -3.94619,-3.054882 c 0.0042,-0.487007 0.0649,-0.995335 0.195566,-1.5091824 0.519085,-2.0413595 1.914294,-3.4730141 3.293535,-3.505682 z m -9.390945,1.39e-4 c 1.220474,0.029134 2.450653,1.1557546 3.078019,2.8285986 L 10.367409,5.8041139 c 0.166354,-0.039136 0.334232,-0.060626 0.502689,-0.056605 z M 2.2215142,10.749614 v 17.062267 c 0,1.8348 1.4870598,3.322158 3.3214924,3.322158 H 25.582705 c 0.778244,0 1.487113,-0.278001 2.056899,-0.729751 L 24.855,28.251008 c -0.526781,0.999803 -1.664536,1.567552 -3.263813,1.567552 -2.425565,0 -4.045984,-1.34765 -6.025617,-1.34765 -1.962597,0 -3.578508,1.34765 -6.0256165,1.34765 -2.2512005,0 -3.5944158,-1.120364 -3.5944158,-2.995562 0,-2.808514 2.5673271,-6.721259 5.4592783,-8.972295 L 8.1760161,15.353994 c 0.00311,0.01081 0.00714,0.02105 0.010178,0.0319 0.5210892,1.861765 -0.2390212,3.674143 -1.6980676,4.048108 -1.4590464,0.373965 -3.0643702,-0.83177 -3.5854583,-2.693535 -0.5210881,-1.861765 0.2388863,-3.674142 1.6979321,-4.048108 0.035541,-0.0091 0.071513,-0.01298 0.107215,-0.02022 z M 25.97845,12.624895 c 0.184537,-8.14e-4 0.369166,0.02126 0.551547,0.06801 1.459046,0.373964 2.219155,2.186343 1.698068,4.048107 -0.225601,0.80526 -0.654286,1.48687 -1.185743,1.971929 L 22.91346,15.516613 c 0.01079,-0.04344 0.0189,-0.08667 0.03108,-0.130176 0.456392,-1.629045 1.742156,-2.755835 3.033912,-2.761542 z" /></svg>
