<svg xmlns="http://www.w3.org/2000/svg" width="40" height="26.66" viewBox="0 0 40 26.66"><path d="M 3.3194987,0 C 1.4861672,0 0,1.4857957 0,3.3186687 V 23.341331 C 0,25.174204 1.4861672,26.66 3.3194987,26.66 H 23.347168 c 1.833331,0 3.319499,-1.485796 3.319499,-3.318669 V 3.3186687 C 26.666667,1.4857957 25.180499,0 23.347168,0 Z M 18.033719,1.3736257 c 0.196916,-0.00466 0.393494,0.019221 0.587157,0.073902 1.549309,0.4374451 2.324518,2.6804201 1.731636,5.010954 C 19.759628,8.7890163 18.022967,10.323623 16.47366,9.8867154 14.924352,9.4498066 14.149278,7.2061593 14.74216,4.8756254 15.260933,2.836409 16.655304,1.406259 18.033719,1.3736257 Z m -9.3853086,1.388e-4 c 1.3784146,0.032887 2.7727856,1.4626443 3.2915586,3.5018607 0.592882,2.3305339 -0.182328,4.5741812 -1.731636,5.01109 C 8.6595264,10.324159 6.9224998,8.7890161 6.3296169,6.4584815 5.7367335,4.1279476 6.511809,1.8844352 8.0611167,1.4475275 8.2547799,1.3929135 8.4514938,1.3690625 8.6484104,1.3737615 Z M 37.670899,2.2216667 c -0.397461,0.017357 -0.801135,0.1422715 -1.170926,0.3956802 L 28.888889,7.8661427 V 18.793857 l 7.611084,5.241745 C 37.972194,25.049236 40,24.014854 40,22.244465 V 4.4086198 C 40,3.0860352 38.86328,2.1695964 37.670899,2.2216667 Z M 2.9340278,8.2435171 c 1.2910716,0.0057 2.576277,1.1311706 3.0319553,2.7585059 0.5207759,1.859811 -0.2387409,3.670284 -1.696913,4.043856 C 2.8108979,15.419453 1.2064041,14.214985 0.68562826,12.355173 0.16485236,10.495362 0.92450542,8.68489 2.3826769,8.3113168 2.5649484,8.2646198 2.749589,8.2427028 2.9340278,8.2435171 Z m 20.8136662,5.554e-4 c 0.184426,-8.123e-4 0.368944,0.021103 0.551216,0.0678 1.458172,0.3735726 2.217823,2.1840455 1.697048,4.0438565 -0.521277,1.859811 -2.12527,3.064278 -3.583442,2.690706 -1.458171,-0.373573 -2.217824,-2.184045 -1.697049,-4.043856 0.456118,-1.6273349 1.741245,-2.7528049 3.032227,-2.7585065 z M 13.341065,11.67895 c 3.976423,0 9.614257,6.588967 9.614257,10.748181 0,1.873229 -1.342407,2.992415 -3.592258,2.992415 -2.424111,0 -4.043553,-1.346234 -6.021999,-1.346234 -1.961422,0 -3.5763574,1.346234 -6.0220004,1.346234 -2.2498512,0 -3.5923936,-1.119186 -3.5923936,-2.992415 0,-4.159214 5.6379707,-10.748181 9.614394,-10.748181 z" /></svg>