<?xml version="1.0" standalone="no"?>
<!DOCTYPE svg PUBLIC "-//W3C//DTD SVG 20010904//EN"
 "http://www.w3.org/TR/2001/REC-SVG-20010904/DTD/svg10.dtd">
<svg version="1.0" xmlns="http://www.w3.org/2000/svg"
 width="1018.000000pt" height="1603.000000pt" viewBox="0 0 1018.000000 1603.000000"
 preserveAspectRatio="xMidYMid meet">

<g transform="translate(0.000000,1603.000000) scale(0.100000,-0.100000)"
fill="#000000" stroke="none">
<path d="M6115 14924 c-262 -41 -531 -152 -740 -306 -101 -75 -289 -268 -368
-378 -123 -174 -220 -396 -268 -618 -26 -122 -37 -416 -20 -546 83 -624 514
-1148 1111 -1351 188 -64 290 -80 530 -80 187 0 229 3 324 24 507 108 922 425
1146 876 118 238 167 425 177 675 11 287 -39 531 -161 786 -238 496 -703 837
-1253 919 -126 18 -355 18 -478 -1z"/>
<path d="M2539 12432 c-14 -6 -8 -21 38 -97 193 -322 303 -628 303 -845 0
-127 -38 -175 -166 -207 -94 -23 -286 -23 -374 1 -119 31 -266 112 -334 185
-17 17 -33 31 -38 31 -4 0 -8 -51 -8 -112 0 -62 -7 -144 -15 -183 -29 -140
-135 -311 -287 -465 -84 -85 -184 -175 -243 -218 -225 -163 -380 -576 -411
-1094 l-7 -118 485 0 484 0 12 198 c18 285 44 455 89 575 65 174 186 339 317
433 27 19 29 27 37 120 10 105 34 208 68 286 40 94 145 178 222 178 44 0 105
-62 113 -115 13 -78 37 -145 69 -187 30 -39 40 -44 97 -56 35 -7 69 -11 75 -8
7 2 19 79 29 187 10 101 24 199 32 216 17 43 61 68 143 83 211 39 397 132 509
255 109 119 152 227 152 380 0 101 -1 104 -29 127 -25 22 -187 66 -488 135
-14 3 -24 15 -28 32 -13 62 -57 96 -208 160 -247 105 -352 131 -515 130 -59 0
-114 -3 -123 -7z m642 -443 c26 -26 21 -57 -13 -82 l-28 -21 -27 21 c-16 11
-29 29 -31 41 -4 25 30 62 58 62 11 0 29 -9 41 -21z"/>
<path d="M2346 12367 c-77 -41 -204 -162 -239 -225 -44 -82 -75 -175 -102
-306 -38 -186 -38 -184 48 -269 181 -181 398 -243 639 -182 35 9 69 24 76 33
29 38 4 228 -54 393 -20 57 -60 155 -90 218 -54 114 -202 371 -213 371 -3 0
-33 -15 -65 -33z"/>
<path d="M4718 11811 c-475 -278 -787 -717 -903 -1271 -44 -211 -48 -261 -52
-773 l-5 -497 2599 2 2598 3 3 315 c3 340 -9 646 -33 805 -73 483 -293 911
-614 1192 -88 77 -244 187 -338 238 l-53 28 -87 -84 c-586 -562 -1386 -748
-2138 -498 -300 100 -612 294 -830 518 -33 33 -64 61 -70 61 -5 0 -40 -18 -77
-39z"/>
<path d="M2664 10971 c-42 -25 -81 -78 -105 -140 -25 -68 -49 -208 -49 -291
l0 -67 -69 -52 c-181 -134 -296 -337 -339 -596 -21 -125 -42 -353 -42 -462 l0
-53 442 0 441 0 -6 129 c-6 114 -4 132 11 150 22 27 340 146 411 154 75 9 129
44 171 112 19 31 47 73 63 92 42 55 37 75 -45 163 -88 93 -136 171 -154 247
-7 32 -26 75 -41 97 -63 89 -234 170 -386 183 -65 6 -70 8 -107 51 -53 59 -88
133 -101 212 -17 95 -34 108 -95 71z m582 -670 c27 -53 -30 -100 -80 -67 -50
32 -23 100 38 94 20 -2 34 -11 42 -27z"/>
<path d="M2573 8385 c-28 -19 -40 -59 -53 -170 -30 -265 -33 -447 -37 -2620
-6 -2874 5 -3416 73 -3522 14 -22 19 -23 178 -23 143 0 165 2 179 18 34 39 52
175 68 522 15 349 7 5318 -9 5485 -24 242 -41 307 -84 319 -13 3 -84 6 -158 6
-105 0 -140 -3 -157 -15z"/>
<path d="M7193 7745 c-82 -58 -92 -357 -92 -2650 0 -2014 8 -2437 50 -2642 17
-83 16 -83 205 -83 194 0 195 0 213 104 33 189 34 259 38 2431 5 2368 1 2597
-47 2775 -20 74 -21 75 -192 78 -127 2 -157 0 -175 -13z"/>
<path d="M3518 7085 c-34 -19 -44 -52 -64 -215 -15 -118 -18 -303 -21 -1497
-5 -1646 4 -2001 57 -2120 l19 -43 174 0 c204 0 199 -2 222 106 33 158 36 369
32 1944 -3 1592 -4 1634 -42 1767 -13 43 -20 53 -46 62 -49 17 -298 14 -331
-4z"/>
<path d="M1619 6795 c-34 -19 -45 -52 -67 -199 -15 -110 -17 -240 -17 -1421 0
-1340 3 -1438 41 -1572 9 -32 22 -57 35 -63 13 -7 81 -10 190 -8 186 3 180 1
199 68 34 115 35 175 35 1570 0 1255 -2 1394 -17 1478 -18 102 -36 138 -74
152 -41 16 -294 12 -325 -5z"/>
<path d="M6256 6585 c-14 -10 -23 -45 -38 -137 -19 -116 -21 -185 -25 -1224
-6 -1374 6 -1684 64 -1750 21 -24 25 -24 182 -24 95 0 170 4 184 11 28 13 40
46 59 169 10 67 13 364 13 1400 0 1375 -2 1445 -43 1530 l-17 35 -180 2 c-143
2 -184 0 -199 -12z"/>
<path d="M4451 6263 c-64 -54 -74 -261 -68 -1367 5 -850 8 -940 36 -1043 20
-73 21 -73 216 -73 162 0 176 1 193 20 60 64 64 152 60 1300 -4 1004 -4 1016
-25 1085 -12 38 -29 75 -39 82 -13 9 -64 13 -185 13 -144 0 -170 -2 -188 -17z"/>
<path d="M8093 6245 c-12 -8 -26 -30 -32 -48 -33 -103 -36 -208 -36 -1207 0
-1039 4 -1147 44 -1230 l16 -35 192 -3 192 -2 15 28 c38 73 39 110 43 1167 5
1160 0 1268 -58 1326 -17 17 -34 19 -187 19 -133 0 -172 -3 -189 -15z"/>
<path d="M652 6021 c-8 -4 -23 -41 -35 -82 -20 -71 -21 -100 -25 -700 -4 -709
3 -898 39 -974 13 -28 28 -53 33 -57 13 -9 338 -11 361 -2 27 11 55 79 66 162
6 49 9 343 7 807 -3 681 -5 733 -22 780 -10 28 -26 56 -34 63 -18 14 -368 17
-390 3z"/>
<path d="M5365 5572 c-23 -5 -36 -18 -55 -57 l-25 -50 0 -450 c0 -247 4 -471
8 -497 5 -27 19 -61 33 -78 l26 -30 188 0 189 0 28 37 28 36 3 470 c3 487 -1
549 -38 597 -18 24 -21 25 -187 27 -92 1 -181 -1 -198 -5z"/>
<path d="M8945 5454 c-30 -46 -37 -145 -33 -467 4 -429 -9 -407 252 -407 175
0 184 1 209 23 14 12 31 35 36 50 7 18 11 158 11 385 0 331 -2 360 -20 400
l-19 42 -209 0 -210 0 -17 -26z"/>
</g>
</svg>
