<?xml version="1.0" standalone="no"?>
<!DOCTYPE svg PUBLIC "-//W3C//DTD SVG 20010904//EN"
 "http://www.w3.org/TR/2001/REC-SVG-20010904/DTD/svg10.dtd">
<svg version="1.0" xmlns="http://www.w3.org/2000/svg"
 width="1011.000000pt" height="762.000000pt" viewBox="0 0 1011.000000 762.000000"
 preserveAspectRatio="xMidYMid meet">

<g transform="translate(0.000000,762.000000) scale(0.100000,-0.100000)"
fill="#000000" stroke="none">
<path d="M6115 6514 c-262 -41 -531 -152 -740 -306 -101 -75 -289 -268 -368
-378 -123 -174 -220 -396 -268 -618 -26 -122 -37 -416 -20 -546 83 -624 514
-1148 1111 -1351 188 -64 290 -80 530 -80 187 0 229 3 324 24 507 108 922 425
1146 876 118 238 167 425 177 675 11 287 -39 531 -161 786 -238 496 -703 837
-1253 919 -126 18 -355 18 -478 -1z"/>
<path d="M2539 4022 c-14 -6 -8 -21 38 -97 193 -322 303 -628 303 -845 0 -127
-38 -175 -166 -207 -94 -23 -286 -23 -374 1 -119 31 -266 112 -334 185 -17 17
-33 31 -38 31 -4 0 -8 -51 -8 -112 0 -62 -7 -144 -15 -183 -29 -140 -135 -311
-287 -465 -84 -85 -184 -175 -243 -218 -225 -163 -380 -576 -411 -1094 l-7
-118 485 0 484 0 12 198 c18 285 44 455 89 575 65 174 186 339 317 433 27 19
29 27 37 120 10 105 34 208 68 286 40 94 145 178 222 178 44 0 105 -62 113
-115 13 -78 37 -145 69 -187 30 -39 40 -44 97 -56 35 -7 69 -11 75 -8 7 2 19
79 29 187 10 101 24 199 32 216 17 43 61 68 143 83 211 39 397 132 509 255
109 119 152 227 152 380 0 101 -1 104 -29 127 -25 22 -187 66 -488 135 -14 3
-24 15 -28 32 -13 62 -57 96 -208 160 -247 105 -352 131 -515 130 -59 0 -114
-3 -123 -7z m642 -443 c26 -26 21 -57 -13 -82 l-28 -21 -27 21 c-35 25 -40 56
-14 82 27 27 55 27 82 0z"/>
<path d="M2346 3957 c-77 -41 -204 -162 -239 -225 -44 -82 -75 -175 -102 -306
-38 -186 -38 -184 48 -269 181 -181 398 -243 639 -182 35 9 69 24 76 33 29 38
4 228 -54 393 -20 57 -60 155 -90 218 -54 114 -202 371 -213 371 -3 0 -33 -15
-65 -33z"/>
<path d="M4718 3401 c-475 -278 -787 -717 -903 -1271 -44 -211 -48 -261 -52
-773 l-5 -497 2599 2 2598 3 3 315 c3 340 -9 646 -33 805 -73 483 -293 911
-614 1192 -88 77 -244 187 -338 238 l-53 28 -87 -84 c-586 -562 -1386 -748
-2138 -498 -300 100 -612 294 -830 518 -33 33 -64 61 -70 61 -5 0 -40 -18 -77
-39z"/>
<path d="M2664 2561 c-42 -25 -81 -78 -105 -140 -25 -68 -49 -208 -49 -291 l0
-67 -69 -52 c-181 -134 -296 -337 -339 -596 -21 -125 -42 -353 -42 -462 l0
-53 442 0 441 0 -6 129 c-6 114 -4 132 11 150 22 27 340 146 411 154 75 9 129
44 171 112 19 31 47 73 63 92 42 55 37 75 -45 163 -88 93 -136 171 -154 247
-7 32 -26 75 -41 97 -63 89 -234 170 -386 183 -65 6 -70 8 -107 51 -53 59 -88
133 -101 212 -17 95 -34 108 -95 71z m582 -670 c27 -53 -30 -100 -80 -67 -50
32 -23 100 38 94 20 -2 34 -11 42 -27z"/>
</g>
</svg>
