<svg xmlns="http://www.w3.org/2000/svg" width="36.63" height="14.72" viewBox="0 0 36.63 14.72"><path d="M4.37,27a5.57,5.57,0,0,1,.24-3.39,8,8,0,0,1,2-3.52,16.09,16.09,0,0,1,4.92-2.87,20.1,20.1,0,0,1,3.83-1.37,35.48,35.48,0,0,1,14.26,0,19.4,19.4,0,0,1,3.83,1.36,16.09,16.09,0,0,1,4.92,2.87,8,8,0,0,1,2,3.52A5.64,5.64,0,0,1,40.63,27,9.25,9.25,0,0,1,39,29.53a1,1,0,0,1-.35.27c-.42.21-1.48-.19-1.92-.34-1.32-.37-2.65-.77-4-1.12-.62-.14-1.54-.17-2-.63-.91-.91.46-4.92-.35-5.72a4.4,4.4,0,0,0-1.85-.7,20.82,20.82,0,0,0-12.16,0,4.4,4.4,0,0,0-1.85.7c-.81.8.56,4.81-.35,5.72-.46.46-1.38.49-2,.63-1.32.35-2.65.75-4,1.12-.44.15-1.5.55-1.92.34A1,1,0,0,1,6,29.53,9.25,9.25,0,0,1,4.37,27Z" transform="translate(-4.18 -15.14)"/></svg>