<?xml version="1.0" standalone="no"?>
<!DOCTYPE svg PUBLIC "-//W3C//DTD SVG 20010904//EN"
 "http://www.w3.org/TR/2001/REC-SVG-20010904/DTD/svg10.dtd">
<svg version="1.0" xmlns="http://www.w3.org/2000/svg"
 width="153.000000pt" height="191.000000pt" viewBox="0 0 153.000000 191.000000"
 preserveAspectRatio="xMidYMid meet">

    <g transform="translate(0.000000,191.000000) scale(0.100000,-0.100000)"
    fill="#000000" stroke="none">
        <path d="M660 1776 c-291 -81 -394 -412 -195 -625 196 -209 536 -158 659 99
27 58 31 75 31 155 0 82 -3 97 -32 156 -85 173 -283 265 -463 215z"/>
        <path d="M1169 1083 c0 -5 0 -51 0 -103 1 -52 -3 -101 -8 -109 -7 -11 2 -24
36 -51 80 -66 97 -102 102 -205 2 -69 8 -95 22 -114 25 -31 24 -40 -8 -73 -34
-35 -62 -35 -96 0 -31 32 -33 50 -12 78 9 12 14 43 15 89 0 59 -4 76 -25 108
-14 20 -30 37 -35 37 -6 0 -19 9 -30 20 -11 11 -30 20 -42 20 -38 -1 -102 -35
-132 -70 -26 -31 -27 -38 -24 -114 3 -45 11 -96 18 -113 13 -30 12 -35 -6 -60
-29 -39 -75 -43 -109 -9 -30 30 -32 55 -6 87 15 19 20 45 22 121 4 88 7 100
34 140 38 53 82 83 133 92 47 7 52 17 52 100 0 81 -12 93 -59 57 -56 -43 -119
-56 -271 -56 -123 0 -139 2 -183 24 -26 14 -55 33 -64 43 -20 22 -37 23 -57 2
-13 -13 -16 -42 -16 -164 l0 -148 35 -21 c40 -23 75 -87 74 -136 0 -36 -38
-116 -59 -125 -8 -4 -25 -12 -37 -18 -29 -15 -98 -14 -143 2 -47 17 -79 75
-80 145 0 65 24 109 75 137 l35 19 0 140 c0 121 3 146 20 180 11 21 18 40 17
42 -2 2 -33 -9 -68 -23 -83 -34 -140 -81 -178 -147 -48 -84 -61 -158 -61 -358
l0 -175 48 -50 c26 -28 60 -56 75 -62 20 -9 182 -12 583 -12 632 0 596 -5 668
87 l38 48 -5 180 c-2 107 -9 194 -17 215 -31 88 -67 149 -119 203 -51 54 -150
118 -152 100z"/>
        <path d="M322 607 c-30 -32 -28 -71 4 -96 35 -27 59 -26 89 4 30 30 31 54 4
89 -26 33 -68 34 -97 3z"/>
    </g>
</svg>
