<?xml version="1.0" standalone="no"?>
<!DOCTYPE svg PUBLIC "-//W3C//DTD SVG 20010904//EN"
 "http://www.w3.org/TR/2001/REC-SVG-20010904/DTD/svg10.dtd">
<svg version="1.0" xmlns="http://www.w3.org/2000/svg"
 width="141.000000pt" height="97.000000pt" viewBox="0 0 141.000000 97.000000"
 preserveAspectRatio="xMidYMid meet">

<g transform="translate(0.000000,97.000000) scale(0.100000,-0.100000)"
fill="#000000" stroke="none">
<path d="M92 953 c-18 -9 -45 -32 -60 -51 l-27 -35 -3 -373 c-3 -361 -2 -375
18 -414 11 -22 35 -50 53 -60 31 -19 54 -20 632 -20 578 0 601 1 632 20 18 10
41 37 53 59 19 38 20 58 20 401 0 340 -1 363 -20 400 -11 21 -34 49 -52 62
l-33 23 -590 2 c-531 3 -593 1 -623 -14z m670 -123 c46 -13 105 -77 114 -124
11 -61 -4 -106 -50 -152 -49 -50 -97 -63 -159 -44 -150 45 -164 247 -23 311
47 21 67 23 118 9z m500 -335 c0 -190 1 -351 2 -357 1 -10 -27 -14 -103 -16
-96 -3 -103 -1 -95 15 16 38 16 180 -1 238 -21 73 -38 99 -89 135 -82 59 -78
53 -60 95 25 60 4 168 -40 204 -9 8 -16 17 -16 22 0 5 90 9 200 9 l200 0 2
-345z m-717 308 c-43 -47 -58 -145 -31 -208 13 -30 12 -30 -44 -72 -98 -71
-120 -117 -127 -261 -4 -65 -1 -89 11 -108 l16 -24 -110 0 -110 0 0 350 0 350
210 0 211 0 -26 -27z m155 -381 c50 -4 69 0 126 27 85 40 108 39 149 -2 37
-37 53 -83 62 -178 7 -77 -10 -120 -55 -138 -20 -9 -104 -11 -286 -9 l-258 3
-24 28 c-21 24 -24 38 -24 100 0 122 36 202 99 223 30 10 41 8 93 -19 40 -21
78 -32 118 -35z"/>
</g>
</svg>
