<svg xmlns="http://www.w3.org/2000/svg" width="45" height="31.2" viewBox="0 0 45 31.2"><path d="M39.8,6.9H5.2A5.2,5.2,0,0,0,0,12.1V32.9a5.2,5.2,0,0,0,5.2,5.2H39.8A5.2,5.2,0,0,0,45,32.9V12.1A5.2,5.2,0,0,0,39.8,6.9Zm.53,4.29v1l-12.26,0a7,7,0,0,0-1-1ZM29.54,16.05a6.83,6.83,0,0,0-.26-1.5l11,0V16Zm10.74,3.83-11.66,0a6.77,6.77,0,0,0,.78-2l10.88,0ZM19.47,12.23h0a4.64,4.64,0,0,1,.7-.45l.31-.18.38-.15a5.5,5.5,0,0,1,.72-.23h0a5.48,5.48,0,0,1,1.15-.13,5.4,5.4,0,0,1,1.15.13,6.34,6.34,0,0,1,.74.23l.36.15a3.92,3.92,0,0,1,.53.29,5,5,0,0,1,.47.33h0a5.22,5.22,0,0,1,1.75,2.34h0a5.17,5.17,0,0,1,.37,1.89,5.29,5.29,0,0,1-.22,1.45h0A6.05,6.05,0,0,1,27.46,19l0,0a5.34,5.34,0,0,1-.63.92h0A5.19,5.19,0,0,1,25.56,21h0a5.41,5.41,0,0,1-1,.49l-.5.16-.35.07a4.75,4.75,0,0,1-.94.1,4.9,4.9,0,0,1-.93-.1l-.35-.07L21,21.5a5.5,5.5,0,0,1-1-.49h0A5.34,5.34,0,0,1,18,19l0,0a5.25,5.25,0,0,1,1.45-6.73Zm-1.12-1a7.57,7.57,0,0,0-1,1l-12.63,0v-1Zm-2.17,3.35a6.72,6.72,0,0,0-.25,1.5l-11.21,0V14.6Zm-.1,3.34a6.67,6.67,0,0,0,.78,2l-12.14,0v-2Zm-11.36,11H10.9c0,.48-.06,1-.06,1.5H4.72Zm0-1.85v-2h6.94a12.4,12.4,0,0,0-.53,2Zm.09,6.69v-1h6.46a4.81,4.81,0,0,0,.62,1ZM4.72,24V21l10.81,0a5.45,5.45,0,0,0-3.42,3ZM32.51,32.8h0a2.76,2.76,0,0,1-.61.57l0,0a3.84,3.84,0,0,1-2.2.61H15.8a4.37,4.37,0,0,1-1.5-.25h0a3,3,0,0,1-.73-.38l-.08-.07a3.19,3.19,0,0,1-1.2-2.68c0-.29,0-.6,0-.92v0a17.1,17.1,0,0,1,.29-2.6h0A8.46,8.46,0,0,1,13.78,24h0a4.65,4.65,0,0,1,.49-.59,1.85,1.85,0,0,1,.14-.14l.23-.2.23-.17.2-.13a2.56,2.56,0,0,1,.47-.23.85.85,0,0,1,.17-.06,2.9,2.9,0,0,1,.42-.12l.18,0a4.48,4.48,0,0,1,.64-.07c.11.06.32.2.49.32l.48.3.09.06.51.31.11.06c.19.11.4.21.61.32l.11,0a8.14,8.14,0,0,0,.79.33,7.51,7.51,0,0,0,2.59.47A7.59,7.59,0,0,0,25.35,24c.28-.1.54-.21.8-.33l.07,0,.64-.33.08-.05c.19-.11.37-.21.53-.32l.08,0,.48-.31c.17-.12.38-.26.49-.32a4.48,4.48,0,0,1,.64.07l.18,0,.42.11.17.06.46.23.22.15.21.15a2.25,2.25,0,0,1,.24.21l.1.1a4.19,4.19,0,0,1,.5.6h0a6.81,6.81,0,0,1,.62,1.13h0a10.77,10.77,0,0,1,.59,2h0a18.63,18.63,0,0,1,.29,2.6v0c0,.25,0,.48,0,.71h0a1.09,1.09,0,0,1,0,.18,3.55,3.55,0,0,1-.67,2.17ZM29.88,21l10.4,0v3H33.35A5.44,5.44,0,0,0,29.88,21Zm10.4,6.13H34.35a13.55,13.55,0,0,0-.52-2h6.45Zm0,1.85v1.5H34.63q0-.78-.06-1.5Zm.1,4.84H33.54a4.16,4.16,0,0,0,.64-1h6.2Z" transform="translate(0 -6.9)"/></svg>