<svg xmlns="http://www.w3.org/2000/svg" width="40" height="39.98" viewBox="0 0 40 39.98"><path d="M20.69,5.23V39.77A2.72,2.72,0,0,1,18,42.49H5.24a2.72,2.72,0,0,1-2.72-2.72V31.59a1.82,1.82,0,1,1,3.63,0v7.27H17.06V24.32H8.7l1.24,1.23a1.83,1.83,0,0,1-1.29,3.11,1.79,1.79,0,0,1-1.28-.54L3,23.8a1.82,1.82,0,0,1,0-2.57l4.34-4.34a1.82,1.82,0,0,1,2.57,2.57L8.71,20.69h8.35V6.14H6.15v7.27a1.82,1.82,0,1,1-3.63,0V5.23A2.72,2.72,0,0,1,5.24,2.51H18A2.72,2.72,0,0,1,20.69,5.23Zm20,10a1.81,1.81,0,0,0,1.82-1.82V5.23a2.72,2.72,0,0,0-2.73-2.72H27.05a2.73,2.73,0,0,0-2.73,2.72V39.77a2.73,2.73,0,0,0,2.73,2.72H39.77a2.72,2.72,0,0,0,2.73-2.72V31.59a1.82,1.82,0,0,0-3.64,0v7.27H28V24.32h8.33l-1.23,1.23a1.82,1.82,0,0,0,1.28,3.1,1.84,1.84,0,0,0,1.29-.53l4.29-4.3a1.81,1.81,0,0,0,.45-.64h0c0-.11.07-.22.1-.33a.61.61,0,0,1,0-.14,1.49,1.49,0,0,0,0-.21h0A1.82,1.82,0,0,0,42,21.22l-4.34-4.34a1.82,1.82,0,1,0-2.57,2.57l1.24,1.24H28V6.14h10.9v7.27A1.82,1.82,0,0,0,40.68,15.23Z" transform="translate(-2.5 -2.51)"/></svg>