<svg xmlns="http://www.w3.org/2000/svg" width="40" height="40" viewBox="0 0 40 40"><path d="M42.5,5.23V39.77a2.73,2.73,0,0,1-2.73,2.73H27.05a2.73,2.73,0,0,1-2.73-2.73V31.59a1.82,1.82,0,1,1,3.63,0v7.27H38.86V24.32h-8.4l1.28,1.27a1.82,1.82,0,0,1-2.57,2.58l-4.34-4.34a1.8,1.8,0,0,1-.37-2,1.11,1.11,0,0,1,.09-.19.56.56,0,0,1,.05-.08,1.82,1.82,0,0,1,.36-.42l4.21-4.2a1.82,1.82,0,0,1,2.57,2.57l-1.2,1.19h8.32V6.14H28v7.27a1.82,1.82,0,1,1-3.63,0V5.23A2.73,2.73,0,0,1,27.05,2.5H39.77A2.73,2.73,0,0,1,42.5,5.23ZM13.37,28.17a1.84,1.84,0,0,0,1.29.53,1.82,1.82,0,0,0,1.28-.53l4.34-4.34a1.82,1.82,0,0,0,0-2.57l-4.34-4.34a1.82,1.82,0,1,0-2.57,2.57l1.2,1.19H6.14V6.14H17.05v7.27a1.82,1.82,0,1,0,3.63,0V5.23A2.73,2.73,0,0,0,18,2.5H5.23A2.73,2.73,0,0,0,2.5,5.23V39.77A2.73,2.73,0,0,0,5.23,42.5H18a2.73,2.73,0,0,0,2.73-2.73V31.59a1.82,1.82,0,1,0-3.63,0v7.27H6.14V24.32h8.51l-1.28,1.27A1.83,1.83,0,0,0,13.37,28.17Z" transform="translate(-2.5 -2.5)"/></svg>