<?xml version="1.0" standalone="no"?>
<!DOCTYPE svg PUBLIC "-//W3C//DTD SVG 20010904//EN"
 "http://www.w3.org/TR/2001/REC-SVG-20010904/DTD/svg10.dtd">
<svg version="1.0" xmlns="http://www.w3.org/2000/svg"
 width="1018.000000pt" height="1603.000000pt" viewBox="0 0 1018.000000 1603.000000"
 preserveAspectRatio="xMidYMid meet">

<g transform="translate(0.000000,1603.000000) scale(0.100000,-0.100000)"
fill="#000000" stroke="none">
<path d="M6115 14924 c-262 -41 -531 -152 -740 -306 -101 -75 -289 -268 -368
-378 -123 -174 -220 -396 -268 -618 -26 -122 -37 -416 -20 -546 83 -624 514
-1148 1111 -1351 188 -64 290 -80 530 -80 187 0 229 3 324 24 507 108 922 425
1146 876 118 238 167 425 177 675 11 287 -39 531 -161 786 -238 496 -703 837
-1253 919 -126 18 -355 18 -478 -1z"/>
<path d="M2539 12432 c-14 -6 -8 -21 38 -97 193 -322 303 -628 303 -845 0
-127 -38 -175 -166 -207 -94 -23 -286 -23 -374 1 -119 31 -266 112 -334 185
-17 17 -33 31 -38 31 -4 0 -8 -51 -8 -112 0 -62 -7 -144 -15 -183 -29 -140
-135 -311 -287 -465 -84 -85 -184 -175 -243 -218 -225 -163 -380 -576 -411
-1094 l-7 -118 485 0 484 0 12 198 c18 285 44 455 89 575 65 174 186 339 317
433 27 19 29 27 37 120 10 105 34 208 68 286 40 94 145 178 222 178 44 0 105
-62 113 -115 13 -78 37 -145 69 -187 30 -39 40 -44 97 -56 35 -7 69 -11 75 -8
7 2 19 79 29 187 10 101 24 199 32 216 17 43 61 68 143 83 211 39 397 132 509
255 109 119 152 227 152 380 0 101 -1 104 -29 127 -25 22 -187 66 -488 135
-14 3 -24 15 -28 32 -13 62 -57 96 -208 160 -247 105 -352 131 -515 130 -59 0
-114 -3 -123 -7z m642 -443 c26 -26 21 -57 -13 -82 l-28 -21 -27 21 c-16 11
-29 29 -31 41 -4 25 30 62 58 62 11 0 29 -9 41 -21z"/>
<path d="M2346 12367 c-77 -41 -204 -162 -239 -225 -44 -82 -75 -175 -102
-306 -38 -186 -38 -184 48 -269 181 -181 398 -243 639 -182 35 9 69 24 76 33
29 38 4 228 -54 393 -20 57 -60 155 -90 218 -54 114 -202 371 -213 371 -3 0
-33 -15 -65 -33z"/>
<path d="M4718 11811 c-475 -278 -787 -717 -903 -1271 -44 -211 -48 -261 -52
-773 l-5 -497 2599 2 2598 3 3 315 c3 340 -9 646 -33 805 -73 483 -293 911
-614 1192 -88 77 -244 187 -338 238 l-53 28 -87 -84 c-586 -562 -1386 -748
-2138 -498 -300 100 -612 294 -830 518 -33 33 -64 61 -70 61 -5 0 -40 -18 -77
-39z"/>
<path d="M2664 10971 c-42 -25 -81 -78 -105 -140 -25 -68 -49 -208 -49 -291
l0 -67 -69 -52 c-181 -134 -296 -337 -339 -596 -21 -125 -42 -353 -42 -462 l0
-53 442 0 441 0 -6 129 c-6 114 -4 132 11 150 22 27 340 146 411 154 75 9 129
44 171 112 19 31 47 73 63 92 42 55 37 75 -45 163 -88 93 -136 171 -154 247
-7 32 -26 75 -41 97 -63 89 -234 170 -386 183 -65 6 -70 8 -107 51 -53 59 -88
133 -101 212 -17 95 -34 108 -95 71z m582 -670 c27 -53 -30 -100 -80 -67 -50
32 -23 100 38 94 20 -2 34 -11 42 -27z"/>
<path d="M2475 8108 c10 -41 185 -832 185 -835 0 -2 58 -3 129 -3 l129 0 11
33 c5 17 38 133 72 257 34 124 64 229 67 234 5 10 14 -18 102 -336 l53 -188
128 0 c113 0 128 2 133 18 3 9 44 193 91 407 47 215 87 400 90 413 5 22 5 22
-119 22 -120 0 -124 -1 -129 -22 -3 -13 -22 -115 -43 -228 -21 -113 -40 -208
-43 -212 -3 -4 -35 99 -70 228 l-65 234 -126 0 -125 0 -64 -235 c-35 -129 -66
-233 -68 -231 -3 3 -22 98 -44 213 -22 114 -41 218 -44 231 -5 21 -9 22 -130
22 -125 0 -125 0 -120 -22z"/>
<path d="M4550 8050 l0 -80 120 0 120 0 0 80 0 80 -120 0 -120 0 0 -80z"/>
<path d="M5108 8067 l-118 -62 0 -57 0 -58 -45 0 -45 0 0 -85 0 -85 44 0 44 0
4 -167 c3 -147 6 -173 24 -208 34 -65 71 -80 194 -80 138 0 161 7 155 43 -2
15 -7 48 -10 74 l-6 47 -44 -6 c-72 -9 -75 -3 -75 158 l0 139 65 0 65 0 0 85
0 85 -65 0 -64 0 -3 120 -3 119 -117 -62z"/>
<path d="M5480 8050 l0 -80 120 0 120 0 0 80 0 80 -120 0 -120 0 0 -80z"/>
<path d="M3920 7887 c-100 -24 -148 -61 -174 -135 -11 -31 -12 -42 -3 -42 7 0
57 -5 111 -10 l100 -10 26 32 c23 28 34 32 86 36 66 4 89 -7 99 -49 8 -33 -6
-39 -186 -80 -199 -44 -234 -64 -260 -150 -25 -85 31 -176 124 -204 97 -29
216 -14 289 36 l43 29 14 -35 14 -35 114 0 114 0 -13 23 c-9 15 -15 88 -18
232 -5 200 -6 213 -30 260 -21 41 -35 55 -82 79 -53 26 -69 29 -185 32 -82 2
-148 -1 -183 -9z m250 -359 c0 -49 -30 -101 -70 -120 -48 -24 -105 -23 -130 2
-44 44 -14 90 77 115 32 9 69 20 83 25 39 13 40 12 40 -22z"/>
<path d="M6227 7886 c-41 -15 -56 -25 -104 -70 l-33 -30 0 52 0 52 -110 0
-110 0 0 -310 0 -310 120 0 120 0 0 174 c0 101 5 186 11 205 21 59 101 80 144
36 25 -24 25 -25 25 -220 l0 -195 120 0 120 0 0 223 c0 122 -5 238 -10 258
-14 51 -49 100 -88 122 -44 26 -153 33 -205 13z"/>
<path d="M6801 7884 c-58 -22 -116 -83 -137 -147 -26 -76 -24 -207 4 -270 28
-63 55 -96 104 -129 77 -52 185 -49 269 8 l51 34 -4 -81 c-3 -74 -6 -83 -31
-105 -43 -36 -110 -34 -147 6 -25 27 -38 31 -136 45 -59 8 -110 15 -112 15
-11 0 6 -98 23 -134 36 -75 141 -116 296 -116 140 0 234 32 288 97 57 68 61
102 61 460 l0 323 -110 0 -110 0 0 -40 c0 -39 -13 -53 -23 -26 -3 8 -27 27
-52 42 -59 34 -166 42 -234 18z m230 -160 c37 -19 59 -67 59 -129 0 -116 -95
-175 -172 -106 -32 29 -33 31 -33 111 0 80 1 82 33 111 36 33 69 36 113 13z"/>
<path d="M4550 7580 l0 -310 120 0 120 0 0 310 0 310 -120 0 -120 0 0 -310z"/>
<path d="M5480 7580 l0 -310 120 0 120 0 0 310 0 310 -120 0 -120 0 0 -310z"/>
<path d="M737 6456 c-75 -28 -103 -70 -113 -170 l-7 -66 -43 0 -44 0 0 -85 0
-85 45 0 45 0 0 -225 0 -225 120 0 120 0 0 225 0 225 55 0 55 0 0 85 0 85 -55
0 c-54 0 -55 0 -55 29 0 44 23 61 85 61 l53 0 12 71 c7 39 10 72 8 75 -3 2
-58 6 -124 9 -90 4 -128 2 -157 -9z"/>
<path d="M4558 6397 l-118 -62 0 -57 0 -58 -45 0 -45 0 0 -85 0 -85 44 0 44 0
4 -167 c3 -147 6 -173 24 -208 34 -65 71 -80 194 -80 138 0 161 7 155 43 -2
15 -7 48 -10 74 l-6 47 -44 -6 c-72 -9 -75 -3 -75 158 l0 139 65 0 65 0 0 85
0 85 -65 0 -64 0 -3 120 -3 119 -117 -62z"/>
<path d="M1271 6214 c-96 -26 -173 -90 -212 -179 -31 -70 -31 -180 1 -253 29
-68 112 -144 182 -169 72 -25 223 -25 295 0 128 45 207 156 207 291 1 125 -47
218 -141 273 -87 51 -224 66 -332 37z m194 -177 c24 -24 35 -46 40 -80 18
-119 -31 -207 -115 -207 -83 0 -133 88 -116 204 17 108 121 153 191 83z"/>
<path d="M2173 6215 c-17 -7 -43 -30 -57 -51 l-26 -39 0 48 0 47 -115 0 -115
0 0 -310 0 -310 119 0 118 0 6 163 c5 174 15 219 55 255 20 19 34 23 75 20
l50 -3 33 78 c19 44 32 83 29 88 -8 12 -74 29 -110 29 -16 -1 -44 -7 -62 -15z"/>
<path d="M3125 6214 c-22 -8 -54 -29 -72 -46 l-33 -32 0 42 0 42 -115 0 -115
0 0 -430 0 -430 120 0 120 0 0 145 c0 80 2 145 4 145 2 0 24 -12 50 -26 100
-56 232 -39 311 41 120 120 108 389 -24 507 -62 57 -159 74 -246 42z m68 -164
c30 -24 47 -75 47 -140 0 -65 -17 -116 -47 -140 -80 -63 -171 24 -160 153 2
34 11 75 18 90 25 55 96 73 142 37z"/>
<path d="M3799 6216 c-152 -41 -235 -153 -233 -316 1 -126 68 -233 177 -281
45 -20 68 -23 177 -24 164 0 212 16 294 97 32 32 57 61 54 63 -2 2 -54 9 -115
15 l-112 10 -38 -26 c-73 -50 -169 -18 -192 64 l-10 32 241 0 241 0 -6 78
c-11 162 -86 253 -236 288 -69 17 -181 17 -242 0z m175 -136 c28 -10 51 -42
61 -82 l7 -28 -116 0 c-115 0 -116 0 -116 24 0 28 34 74 64 86 29 12 70 12
100 0z"/>
<path d="M5531 6214 c-96 -26 -173 -90 -212 -179 -31 -70 -31 -180 1 -253 29
-68 112 -144 182 -169 72 -25 223 -25 295 0 128 45 207 156 207 291 1 125 -47
218 -141 273 -87 51 -224 66 -332 37z m194 -177 c24 -24 35 -46 40 -80 18
-119 -31 -207 -115 -207 -83 0 -133 88 -116 204 17 108 121 153 191 83z"/>
<path d="M7607 6216 c-41 -15 -56 -25 -104 -70 l-33 -30 0 52 0 52 -110 0
-110 0 0 -310 0 -310 120 0 120 0 0 174 c0 101 5 186 11 205 21 59 101 80 144
36 25 -24 25 -25 25 -220 l0 -195 120 0 120 0 0 223 c0 122 -5 238 -10 258
-14 51 -49 100 -88 122 -44 26 -153 33 -205 13z"/>
<path d="M8259 6216 c-152 -41 -235 -153 -233 -316 1 -126 68 -233 177 -281
45 -20 68 -23 177 -24 164 0 212 16 294 97 32 32 57 61 54 63 -2 2 -54 9 -115
15 l-112 10 -38 -26 c-73 -50 -169 -18 -192 64 l-10 32 241 0 241 0 -6 78
c-11 162 -86 253 -236 288 -69 17 -181 17 -242 0z m175 -136 c28 -10 51 -42
61 -82 l7 -28 -116 0 c-115 0 -116 0 -116 24 0 28 34 74 64 86 29 12 70 12
100 0z"/>
<path d="M9163 6215 c-17 -7 -43 -30 -57 -51 l-26 -39 0 48 0 47 -115 0 -115
0 0 -310 0 -310 119 0 118 0 6 163 c5 174 15 219 55 255 20 19 34 23 75 20
l50 -3 33 78 c19 44 32 83 29 88 -8 12 -74 29 -110 29 -16 -1 -44 -7 -62 -15z"/>
<path d="M6161 5930 c59 -160 111 -300 114 -311 6 -17 16 -19 114 -19 l107 0
58 181 c32 100 61 177 66 173 4 -5 33 -87 65 -182 l57 -173 106 3 107 3 112
305 c62 168 113 306 113 308 0 1 -51 2 -113 2 l-112 0 -49 -190 c-27 -105 -52
-188 -55 -184 -3 3 -33 87 -67 187 l-61 182 -108 0 -108 0 -62 -190 c-35 -106
-65 -183 -68 -175 -4 8 -26 94 -50 190 l-43 175 -116 3 -116 3 109 -291z"/>
<path d="M1018 4517 l-118 -62 0 -57 0 -58 -45 0 -45 0 0 -85 0 -85 44 0 44 0
4 -167 c3 -147 6 -173 24 -208 34 -65 71 -80 194 -80 138 0 161 7 155 43 -2
15 -7 48 -10 74 l-6 47 -44 -6 c-72 -9 -75 -3 -75 158 l0 139 65 0 65 0 0 85
0 85 -65 0 -64 0 -3 120 -3 119 -117 -62z"/>
<path d="M7548 4517 l-118 -62 0 -57 0 -58 -45 0 -45 0 0 -85 0 -85 44 0 44 0
4 -167 c3 -147 6 -173 24 -208 34 -65 71 -80 194 -80 138 0 161 7 155 43 -2
15 -7 48 -10 74 l-6 47 -44 -6 c-72 -9 -75 -3 -75 158 l0 139 65 0 65 0 0 85
0 85 -65 0 -64 0 -3 120 -3 119 -117 -62z"/>
<path d="M1591 4334 c-96 -26 -173 -90 -212 -179 -31 -70 -31 -180 1 -253 29
-68 112 -144 182 -169 72 -25 223 -25 295 0 128 45 207 156 207 291 1 125 -47
218 -141 273 -87 51 -224 66 -332 37z m194 -177 c24 -24 35 -46 40 -80 18
-119 -31 -207 -115 -207 -83 0 -133 88 -116 204 17 108 121 153 191 83z"/>
<path d="M2780 4334 c-67 -18 -124 -56 -167 -112 -41 -54 -56 -108 -56 -202 0
-99 28 -165 94 -224 62 -56 120 -76 239 -83 189 -11 310 49 365 181 9 21 15
40 13 42 -2 2 -37 8 -78 14 -41 6 -89 13 -107 16 -28 4 -34 1 -48 -26 -48 -93
-191 -90 -231 5 -33 79 -4 199 55 229 16 9 49 16 72 16 36 0 48 -6 80 -39 l37
-40 99 14 c54 8 101 15 105 15 11 0 -10 50 -39 93 -68 98 -268 145 -433 101z"/>
<path d="M3591 4334 c-96 -26 -173 -90 -212 -179 -31 -70 -31 -180 1 -253 29
-68 112 -144 182 -169 72 -25 223 -25 295 0 128 45 207 156 207 291 1 125 -47
218 -141 273 -87 51 -224 66 -332 37z m194 -177 c24 -24 35 -46 40 -80 18
-119 -31 -207 -115 -207 -83 0 -133 88 -116 204 17 108 121 153 191 83z"/>
<path d="M4537 4336 c-41 -15 -56 -25 -104 -70 l-33 -30 0 52 0 52 -110 0
-110 0 0 -310 0 -310 120 0 120 0 0 174 c0 101 5 186 11 205 21 59 101 80 144
36 25 -24 25 -25 25 -220 l0 -195 120 0 120 0 0 223 c0 122 -5 238 -10 258
-14 51 -49 100 -88 122 -44 26 -153 33 -205 13z"/>
<path d="M5337 4336 c-41 -15 -56 -25 -104 -70 l-33 -30 0 52 0 52 -110 0
-110 0 0 -310 0 -310 120 0 120 0 0 174 c0 101 5 186 11 205 21 59 101 80 144
36 25 -24 25 -25 25 -220 l0 -195 120 0 120 0 0 223 c0 122 -5 238 -10 258
-14 51 -49 100 -88 122 -44 26 -153 33 -205 13z"/>
<path d="M5989 4336 c-152 -41 -235 -153 -233 -316 1 -126 68 -233 177 -281
45 -20 68 -23 177 -24 164 0 212 16 294 97 32 32 57 61 54 63 -2 2 -54 9 -115
15 l-112 10 -38 -26 c-73 -50 -169 -18 -192 64 l-10 32 241 0 241 0 -6 78
c-11 162 -86 253 -236 288 -69 17 -181 17 -242 0z m175 -136 c28 -10 51 -42
61 -82 l7 -28 -116 0 c-115 0 -116 0 -116 24 0 28 34 74 64 86 29 12 70 12
100 0z"/>
<path d="M6780 4334 c-67 -18 -124 -56 -167 -112 -41 -54 -56 -108 -56 -202 0
-99 28 -165 94 -224 62 -56 120 -76 239 -83 189 -11 310 49 365 181 9 21 15
40 13 42 -2 2 -37 8 -78 14 -41 6 -89 13 -107 16 -28 4 -34 1 -48 -26 -48 -93
-191 -90 -231 5 -33 79 -4 199 55 229 16 9 49 16 72 16 36 0 48 -6 80 -39 l37
-40 99 14 c54 8 101 15 105 15 11 0 -10 50 -39 93 -68 98 -268 145 -433 101z"/>
<path d="M7910 3840 l0 -120 130 0 130 0 0 120 0 120 -130 0 -130 0 0 -120z"/>
<path d="M8310 3840 l0 -120 130 0 130 0 0 120 0 120 -130 0 -130 0 0 -120z"/>
<path d="M8710 3840 l0 -120 130 0 130 0 0 120 0 120 -130 0 -130 0 0 -120z"/>
</g>
</svg>
