<svg xmlns="http://www.w3.org/2000/svg" width="24.96" height="24.96" viewBox="0 0 24.96 24.96"><path d="M34.39,31.54l-2.86,2.85a2,2,0,0,1-1.42.59,2,2,0,0,1-1.43-.59L22.5,28.21l-6.18,6.18a2,2,0,0,1-1.43.59,2,2,0,0,1-1.42-.59l-2.86-2.85a2,2,0,0,1,0-2.86l6.17-6.18-6.17-6.18a2,2,0,0,1,0-2.86l2.86-2.85A2,2,0,0,1,14.89,10a2,2,0,0,1,1.43.59l6.18,6.18,6.18-6.18A2,2,0,0,1,30.11,10a2,2,0,0,1,1.42.59l2.86,2.85a2,2,0,0,1,0,2.86L28.22,22.5l6.17,6.18a2,2,0,0,1,0,2.86Z" transform="translate(-10.02 -10.02)"/></svg>